<svg width="24" height="24" viewBox="0 0 24 24" fill="none" xmlns="http://www.w3.org/2000/svg">
<path d="M21.4286 1.5H2.57143C1.15125 1.5 0 2.50734 0 3.75V20.25C0 21.4927 1.15125 22.5 2.57143 22.5H21.4286C22.8488 22.5 24 21.4927 24 20.25V3.75C24 2.50734 22.8488 1.5 21.4286 1.5ZM9.54198 12.2861C4.6837 9.20095 4.7332 9.19317 3.42857 8.3047V7.125C3.42857 6.50367 4.0042 6 4.71429 6H19.2857C19.9958 6 20.5714 6.50367 20.5714 7.125V8.3047C19.2658 9.19388 19.316 9.20114 14.458 12.2862C13.8955 12.645 12.7763 13.5105 12 13.5C11.2231 13.5102 10.1053 12.6456 9.54198 12.2861ZM20.5714 10.2082V16.875C20.5714 17.4963 19.9958 18 19.2857 18H4.71429C4.0042 18 3.42857 17.4963 3.42857 16.875V10.2082C4.17632 10.7142 5.21405 11.3911 8.53409 13.4995C9.29277 13.9842 10.5685 15.0063 11.9998 15C13.4402 15.0062 14.734 13.9668 15.467 13.4988C18.7862 11.391 19.8237 10.7141 20.5714 10.2082Z" fill="#9802CE"/>
</svg>
