<svg width="24" height="24" viewBox="0 0 24 24" fill="none" xmlns="http://www.w3.org/2000/svg">
<g clip-path="url(#clip0_121_111)">
<path d="M0.87212 1.15388L5.74712 0.028876C6.27681 -0.092999 6.82056 0.183564 7.03618 0.680439L9.28618 5.93044C9.48306 6.38981 9.35181 6.92888 8.96275 7.24294L6.12212 9.56794C7.80962 13.1633 10.7581 16.1539 14.4284 17.8742L16.7534 15.0336C17.0721 14.6445 17.6065 14.5133 18.0659 14.7101L23.3159 16.9601C23.8174 17.1804 24.094 17.7242 23.9721 18.2539L22.8471 23.1289C22.7299 23.6351 22.2799 24.0008 21.7502 24.0008C9.74556 24.0008 0.000244141 14.2742 0.000244141 2.25075C0.000244141 1.72575 0.361183 1.27106 0.87212 1.15388Z" fill="#9802CE"/>
</g>
<defs>
<clipPath id="clip0_121_111">
<rect width="24" height="24" fill="white" transform="matrix(-1 0 0 1 24 0)"/>
</clipPath>
</defs>
</svg>
