<svg xmlns="http://www.w3.org/2000/svg" xmlns:xlink="http://www.w3.org/1999/xlink" width="201.886" height="84.225" viewBox="0 0 201.886 84.225"><defs><linearGradient id="a" y1="0.802" x2="0" y2="0.007" gradientUnits="objectBoundingBox"><stop offset="0" stop-color="#f50057"/><stop offset="1" stop-color="#651fff"/></linearGradient><linearGradient id="b" x1="0" y1="0.005" x2="0" y2="0.989" xlink:href="#a"/></defs><g transform="translate(0 -13)"><g transform="translate(0 13)"><path d="M20445.543,3804.978a3.98,3.98,0,0,1,3.5,3.938v43.3a3.677,3.677,0,0,1-1.187,2.788,3.814,3.814,0,0,1-2.311,1.148v7.424a.525.525,0,0,1-.521.525h0a.528.528,0,0,1-.527-.525v-7.424a3.825,3.825,0,0,1-2.309-1.148,3.668,3.668,0,0,1-1.186-2.788v-43.3a3.977,3.977,0,0,1,3.494-3.938v-13.455a.526.526,0,0,1,.527-.523h0a.523.523,0,0,1,.521.523Z" transform="translate(-20381.012 -3779.875)" fill="url(#a)"/><path d="M15560.542,13.978a3.988,3.988,0,0,1,3.494,3.938v43.3a3.665,3.665,0,0,1-1.187,2.785,3.8,3.8,0,0,1-2.307,1.15V75.878a.528.528,0,0,1-.524.522h0a.524.524,0,0,1-.524-.522V65.152a3.812,3.812,0,0,1-2.308-1.15,3.667,3.667,0,0,1-1.186-2.785v-43.3a3.984,3.984,0,0,1,3.493-3.938V.525a.525.525,0,0,1,.524-.525h0a.526.526,0,0,1,.524.525Z" transform="translate(-15510.349)" fill="url(#b)"/><g transform="translate(0 14.198)"><path d="M25828.926,4859.446a3.3,3.3,0,0,0-2.43.986,3.357,3.357,0,0,0-.973,2.418,3.142,3.142,0,0,0,1.891,2.955,45.2,45.2,0,0,0,5.486,1.646,13.917,13.917,0,0,1,5.8,2.909c1.814,1.737,2.721,4.188,2.721,7.389a11.406,11.406,0,0,1-11.437,11.439h-8.564a3.835,3.835,0,0,1-2.787-1.174,3.7,3.7,0,0,1-1.178-2.788v-.067a4.036,4.036,0,0,1,3.965-4.005h8.887a3.375,3.375,0,0,0,3.416-3.4,2.94,2.94,0,0,0-1.869-2.732c-.326-.144-2.164-.692-5.51-1.634a13.52,13.52,0,0,1-5.811-3.023q-2.719-2.651-2.719-7.51a11.487,11.487,0,0,1,11.439-11.442h6.045a4.006,4.006,0,0,1,3.994,4v.067a3.676,3.676,0,0,1-1.17,2.788,3.857,3.857,0,0,1-2.824,1.185Zm-49.559,43.222a4.009,4.009,0,0,1-3.961-3.962v-28.469a18.878,18.878,0,1,1,18.885,18.952c-4.758,0-8.387-1.094-10.85-3.277v12.794a4.029,4.029,0,0,1-3.975,3.962Zm14.924-21.582a10.854,10.854,0,1,0,0-21.707,10.876,10.876,0,0,0-7.705,18.526A10.466,10.466,0,0,0,25794.291,4881.086Zm-30.686-33.941a4.573,4.573,0,1,1,3.213-7.8,4.476,4.476,0,0,1,0,6.459A4.392,4.392,0,0,1,25763.605,4847.145Zm.035,4.264a3.7,3.7,0,0,1,2.787,1.177,3.876,3.876,0,0,1,1.174,2.82v29.822a4.009,4.009,0,0,1-3.961,3.962h-.068a3.847,3.847,0,0,1-2.822-1.174,3.73,3.73,0,0,1-1.186-2.788v-29.822a3.911,3.911,0,0,1,1.186-2.82,3.851,3.851,0,0,1,2.822-1.177Zm-44.678,51.26a4.016,4.016,0,0,1-3.965-3.962v-28.469a18.881,18.881,0,1,1,18.885,18.952c-4.754,0-8.383-1.094-10.846-3.277v12.794a4.029,4.029,0,0,1-3.973,3.962Zm14.92-21.582a10.854,10.854,0,1,0,0-21.707,10.876,10.876,0,0,0-7.7,18.526A10.46,10.46,0,0,0,25733.883,4881.086Z" transform="translate(-25639.531 -4838)" fill="#fff"/><path d="M18.884,9415.037a10.461,10.461,0,0,0-7.7,3.182,10.972,10.972,0,0,0,0,15.38,10.563,10.563,0,0,0,7.7,3.147,10.8,10.8,0,0,0,10.858-10.862,10.422,10.422,0,0,0-3.178-7.665A10.434,10.434,0,0,0,18.884,9415.037Zm0-8.038a18.207,18.207,0,0,1,13.356,5.544,18.209,18.209,0,0,1,5.541,13.341v14.935a3.71,3.71,0,0,1-1.177,2.789,3.851,3.851,0,0,1-2.788,1.173h-.1a3.811,3.811,0,0,1-2.785-1.173,3.678,3.678,0,0,1-1.189-2.789q-3.728,3.962-10.858,3.962a18.2,18.2,0,0,1-13.344-5.54,18.85,18.85,0,0,1,0-26.7A18.2,18.2,0,0,1,18.884,9407Z" transform="translate(0 -9393.591)" fill="#fff"/></g></g></g></svg>